<svg xmlns="http://www.w3.org/2000/svg" width="477" height="477" style="shape-rendering:geometricPrecision;text-rendering:geometricPrecision;image-rendering:optimizeQuality;fill-rule:evenodd;clip-rule:evenodd"><path style="opacity:.986" fill="#fefffe" d="M154.5-.5h5a596.42 596.42 0 0 1 21.5 41c36.993-16.925 74.16-17.259 111.5-1a768.834 768.834 0 0 0 24-40h6c1.748 1.66 2.248 3.66 1.5 6a1058.801 1058.801 0 0 1-21.5 38c39.053 23.761 61.72 58.428 68 104h-266c5.867-44.76 28.034-78.76 66.5-102 .667-1 .667-2 0-3a865.313 865.313 0 0 1-18-35c-.891-2.998-.391-5.664 1.5-8Zm22 79c11.041 2.16 14.041 8.16 9 18-5.747 5.405-11.247 5.072-16.5-1-3.454-8.418-.954-14.085 7.5-17Zm120 0c11.028 2.111 14.028 8.111 9 18-5.728 5.278-11.228 4.944-16.5-1-3.454-8.418-.954-14.085 7.5-17Z"/><path style="opacity:.984" fill="#fefffe" d="M62.5 153.5c16.753-.068 27.253 7.932 31.5 24 .667 44.667.667 89.333 0 134-5.319 17.635-17.152 25.135-35.5 22.5-10.167-3.5-17-10.333-20.5-20.5-.667-46-.667-92 0-138 3.65-12.489 11.817-19.822 24.5-22ZM406.5 153.5c15.407.26 25.574 7.594 30.5 22 .667 46 .667 92 0 138-7.047 17.774-19.88 24.274-38.5 19.5-9.502-4.17-15.336-11.337-17.5-21.5-.667-45-.667-90 0-135 3.978-12.817 12.478-20.484 25.5-23Z"/><path style="opacity:.989" fill="#fefffe" d="M289.5 476.5h-5c-12.769-1.656-21.269-8.656-25.5-21a984.807 984.807 0 0 1-1.5-75h-40c.453 25.377-.047 50.71-1.5 76-4.474 11.317-12.64 17.983-24.5 20h-6c-12.256-2.081-20.423-9.081-24.5-21a1007.2 1007.2 0 0 1-1.5-75 302.475 302.475 0 0 1-41-1.5c-6.766-3.096-10.932-8.263-12.5-15.5-.5-67.999-.667-135.999-.5-204h264c.167 68.334 0 136.667-.5 205-1.824 8.491-6.991 13.658-15.5 15.5-12.662.5-25.329.667-38 .5a974.425 974.425 0 0 1-1.5 75c-4.077 11.919-12.244 18.919-24.5 21Z"/></svg>