<svg xmlns="http://www.w3.org/2000/svg" width="1781" height="1782" style="shape-rendering:geometricPrecision;text-rendering:geometricPrecision;image-rendering:optimizeQuality;fill-rule:evenodd;clip-rule:evenodd"><path fill="#fefffe" d="M464.5-.5h852c155.68 10.74 280.18 78.074 373.5 202 52.19 73.404 82.36 155.07 90.5 245v889c-15.77 150.1-84.11 269.6-205 358.5-72.58 50.25-152.92 79.42-241 87.5h-888c-151.593-15.85-271.76-85.18-360.5-208-52.664-76.82-81.497-161.82-86.5-255v-855c9.4-142.635 68.068-260.135 176-352.5C259.548 42.694 355.881 5.528 464.5-.5Zm-119 611c31.194.563 48.528 16.23 52 47-3.377 29.042-19.711 44.375-49 46-35.017-3.173-50.85-22.173-47.5-57 6.989-21.833 21.822-33.833 44.5-36Zm423 23c51.746-.736 99.08 13.097 142 41.5 42.152 31.744 70.319 73.244 84.5 124.5 18 68.664 18 137.331 0 206-34.996 108.63-109.829 163.97-224.5 166-116.845-2.12-192.345-58.79-226.5-170-15.084-60.351-16.417-121.018-4-182 29.636-119.227 105.803-181.227 228.5-186Zm524 0c37.74-.086 73.41 8.414 107 25.5 47.42 26.622 73.75 67.122 79 121.5-25.34.333-50.68 0-76-1-9.95-39.451-34.95-63.617-75-72.5-30.89-6.147-61.22-4.147-91 6-41.01 17.859-55.85 48.359-44.5 91.5 5.74 10.405 13.57 18.905 23.5 25.5a195.045 195.045 0 0 0 42 18c33.25 8.647 66.59 16.98 100 25 30.92 7.627 59.25 20.627 85 39 30.68 26.041 45.34 59.375 44 100-1.39 67.14-32.72 114.14-94 141-52.42 19.28-106.09 23.62-161 13-42.01-8.08-77.18-27.91-105.5-59.5-19.27-24.97-29.77-53.3-31.5-85h77c3.56 23.3 14.9 41.8 34 55.5 21.79 14.37 45.79 22.37 72 24 26.46 2.58 52.12-.75 77-10 19.48-7.81 34.64-20.64 45.5-38.5 14.62-33.36 7.45-60.855-21.5-82.5a200.4 200.4 0 0 0-41-19 6860.64 6860.64 0 0 0-112-28c-99.21-28.261-135.05-92.094-107.5-191.5 12.71-29.709 32.88-52.876 60.5-69.5 35.75-18.938 73.75-28.438 114-28.5Zm-981 139h74v387h-74v-387Z" style="opacity:.998"/><path fill="#fefffe" d="M752.5 707.5c87.441-4.053 143.274 35.947 167.5 120 9.36 41.671 11.027 83.671 5 126-6.132 44.102-25.298 81.27-57.5 111.5-34.765 26.86-74.098 37.53-118 32-55.901-8.25-95.401-38.08-118.5-89.5-15.686-40.509-22.186-82.009-19.5-124.5 1.989-40.965 13.822-78.798 35.5-113.5 25.948-36.228 61.115-56.895 105.5-62Z" style="opacity:.993"/></svg>