<svg xmlns="http://www.w3.org/2000/svg" width="512" height="512"><path d="M303.559 15.54C322.139 30.021 333.846 53.8 337 77c.258 4.39.346 8.776.406 13.172.696 45.438 12.032 84.775 42.007 119.484C409.611 244.666 434.225 295.769 431 343c-2.06 14.792-2.06 14.792-7 20-1.195.71-2.405 1.395-3.625 2.063-4.115 2.348-6.616 5.549-9.375 9.312-6.876 9.33-14.272 16.34-26 18.625-8.44.58-16.362 1.018-23.016-4.746-4.966-5.166-8.15-10.908-11.246-17.336-1.89-3.172-3.676-4.885-6.738-6.918-2.635-.49-2.635-.49-5 1-6.438 8.592-6.57 19.77-5.32 29.958.464 2.964 1.153 5.865 1.827 8.787 4.011 17.63 3.385 35.566.954 53.396-1.437 12.028-1.144 22.166 5.289 32.734 5.47 5.167 12.3 7.456 19.727 7.336 11.868-.992 20.848-7.749 29.773-15.024 12.167-9.889 24.128-16.596 38.75-22.187 3.226-1.244 6.448-2.494 9.667-3.756 2.168-.85 4.34-1.69 6.516-2.517 7.295-2.853 14.215-6.125 19.817-11.727.633-3.976.28-5.589-2.004-8.945-3.191-3.652-6.972-5.311-11.371-7.18-10.45-4.597-18.008-8.192-22.629-19.285-3.358-9.718-5.026-20.834-.996-30.59l3-2c1.809 1.809 1.478 4.74 1.75 7.188 1.781 12.595 5.193 23.445 15.25 31.812 3.51 2.47 7.111 4.784 10.796 6.983 11.897 7.181 11.897 7.181 13.985 13.307.897 4.734.177 8.619-2.261 12.753-8.937 11.509-25.116 17.83-37.895 24.144-18.979 9.395-36.067 21.774-51.367 36.442-6.838 5.616-15.8 5.853-24.258 5.746l-2.79.035c-10.181-.043-19.493-2.533-27.21-9.41-7-8.408-7-8.408-7-12-6.285-2.666-12.049-4.25-18.903-4.259l-1.975-.01a884.285 884.285 0 0 0-6.415.003l-4.534-.005c-3.17-.003-6.34 0-9.51.01-4.001.012-8.003.005-12.004-.007-40.142-.664-40.142-.664-75.6 15.995-8.705 6.47-18.227 9.638-29.059 8.273-7.998-1.787-15.768-4.602-23.539-7.169-19.981-6.6-39.84-12.465-60.55-16.386l-2.101-.399a881.941 881.941 0 0 0-10.181-1.867C56.64 483.35 45.779 481.292 39 473c-2.918-7.47-.002-14.595 2.5-21.688 4.254-12.843 4.032-21.788.94-34.792-1.567-6.673-2.832-12.884-.315-19.457 5.609-6.17 13.801-6.005 21.557-6.792C73.997 389.071 81.86 385.684 89 378c2.62-4.406 3.085-9.99 4-15 3.418 5.127 3.317 10.23 2.313 16.125-1.636 6.993-5.111 11.465-10.934 15.55-8.113 4.517-16.864 4.622-25.934 4.333-3.282-.008-6.232.353-9.445.992-1.918 8.311.677 14.924 4.16 22.535 3.32 7.317 4.75 14.741 2.135 22.576-1.17 2.984-2.416 5.912-3.804 8.801C49.166 458.866 48.3 462.508 49 468c7.363 7.297 23.86 8.044 33.733 9.994 19.638 3.879 38.705 8.75 57.806 14.72 13.38 4.173 29.241 7.963 42.547 1.493 4.979-3.14 9.049-7.612 10.914-13.207 2.233-26.504-12.924-47.102-27-68l-2.199-3.28a3202.926 3202.926 0 0 0-6.676-9.908l-2.05-3.036C139.41 369.78 139.41 369.78 114 353c-5.122-.176-9.31 1.01-14 3-2-1-2-1-3-4-.281-3.328-.278-6.661-.313-10l-.087-2.715c-.09-9.594 3.09-17.34 7.85-25.534 7.683-13.302 12.587-27.695 17.715-42.118 6.695-18.712 14.917-35.342 27.366-50.959 8.434-10.609 16.351-21.573 23.469-33.112l1.31-2.11c.844-1.397 1.661-2.812 2.451-4.24C178 179 178 179 179.461 176.858c5.87-9.916 3.325-21.77 2.414-32.733-.166-2.263-.328-4.527-.488-6.79-.312-4.445-.635-8.889-.965-13.333C179.58 112.35 179.223 100.681 179 89l-.066-3.17c-.44-23.683.65-48.5 17.82-66.709 28.22-26.65 76-26.235 106.805-3.582ZM285 30c-2.022 2.022-1.922 5.722-2.402 8.457-.575 2.447-1.38 4.356-2.598 6.543 3.866.355 3.866.355 6.188-1.375 3.767-2.177 7.567-2.839 11.812-3.625v-3c-1.847-1.921-1.847-1.921-4.25-3.688l-2.39-1.886c-2.471-1.77-2.471-1.77-6.36-1.426Zm-27.438 49.063c-7.09 7.147-8.17 15.879-8.312 25.562l-.09 3.043c-.07 2.444-.123 4.887-.16 7.332l-3-2c-2.5-.46-2.5-.46-5.25-.625l-2.766-.227c-3.332-.165-6.648-.173-9.984-.148l-.196-1.769c-1.493-17.429-1.493-17.429-10.492-31.793-4.035-2.51-6.502-2.764-11.312-2.438-4.54 2.063-6.142 4.425-8.25 8.875l-1.516 3.117c-3.72 9.065-3.3 19.655-.168 28.84 1.314 3.05 2.922 5.531 4.934 8.168 1.95-.195 1.95-.195 4-1 1.284-1.984 1.284-1.984 2-4l-2.313-1.125c-4.227-2.95-5.319-6.345-6.5-11.25-.276-5.347.425-9.62 3.5-14.063 3.17-2.142 5.503-2.495 9.313-2.562 3.62 1.263 5.377 3.173 7.313 6.375 2.522 5.662 2.95 11.58 1.687 17.625-2.171 3.093-4.912 4.88-8 7a264.3 264.3 0 0 0-4.625 4.188c-2.49 2.231-4.901 4.25-7.75 6-3.676 2.537-5.15 4.962-6.25 9.25 1 4.098 4.183 6.296 7.625 8.562h2l.805 1.805c2.647 4.862 6.78 7.667 11.882 9.57 14.86 2.756 29.588-1.346 43.688-5.75l2.736-.848c11.229-3.465 11.229-3.465 20.139-10.59L284 142c3.25-.313 3.25-.313 6 0 0 2.75 0 2.75-1 6-5.563 3.144-11.434 5.48-17.375 7.813l-2.619 1.033c-1.787.705-3.575 1.408-5.363 2.11a886.475 886.475 0 0 0-7.596 3.048l-4.672 1.871-2.11.866c-9.232 3.657-18.012 4.555-27.89 4.384l-3.043-.027A973.65 973.65 0 0 1 211 169c5.156 6.465 9.958 10.229 18.418 11.309 15.161.705 28.242-6.784 40.92-14.257 5.372-3.103 9.435-4.783 15.662-5.052l1 6c-.686.26-1.372.52-2.078.79-11.258 4.665-21.124 11.26-30.957 18.366-4.852 3.506-9.842 6.748-14.965 9.844l-3.063 1.938c-4.36 1.577-8.358 1.714-12.937 1.062-10.28-4.838-17.861-17.792-24-27l-3 1-.297 2.09-.453 2.847-.422 2.778c-2.363 9.374-7.64 18.152-11.937 26.758-5.232 10.734-7.243 19.501-3.828 31.152L180 241l-2.266 1.652c-16.508 14.174-27.044 47.406-28.913 68.35-.28 4.663-.34 9.329-.383 13.998-.032 2.688-.078 5.375-.13 8.063l-.037 3.535c-.3 3.755-1.127 6.824-2.271 10.402l-3.875-.75-2.18-.422c-2.608-1.11-2.893-2.24-3.945-4.828l-1.219-2.227-1.281-2.398-1.281-2.352c-3.3-8.187-3.488-16.425-3.344-25.148l.027-3.188c.024-2.562.056-5.124.098-7.687-4.956 6.38-5.771 14.07-5 22 1.764 11.494 4.27 22.883 13 31l3.75 3.602c8.525 8.092 17.164 15.941 26.25 23.398l2.86 2.355c2.707 2.223 5.422 4.436 8.14 6.645 6.03 4.901 12.037 9.83 18 14.813l1.673 1.382c5.596 4.702 7.947 7.855 8.64 15.055-.485 5.812-2.567 9.957-6.625 14.125-3.226 1.95-6.027 2.764-9.688 3.625l1.32 2.055c1.904 2.975 3.793 5.96 5.68 8.945l1.695 2.64c6.742 10.774 8.091 20.92 9.305 33.36 3.074-.735 3.074-.735 4.688-3 1.837-4.2 2.216-7.562 1.312-12-2.335-5.666-4.96-11.37-8.73-16.23C204 450 204 450 204 447c2.829-1.414 4.862-1.266 8-1 2.492 1.426 2.492 1.426 4.875 3.313 13.313 9.894 30.748 8.984 46.554 6.866 13.097-2.016 25.626-5.398 36.571-13.179l2.434-1.703c3.883-3.476 6.527-7.733 9.373-12.072 3.48-5.021 3.48-5.021 7.54-6.182L322 423c2.935 13.575-.497 26.537-4.75 39.438-1.47 4.709-2.209 9.673-1.25 14.562 2.815 2.277 2.815 2.277 6 2 4.92-24.734 9.122-47.711 5.52-72.926-1.89-13.861-4.17-31 4.48-43.074 3.511-3.103 6.17-4.079 10.688-4.688 2.335-.332 2.335-.332 4.312-1.312 1.173-2.213 1.689-4.318 2.285-6.746 1.197-3.772 3.444-5.195 6.715-7.254 11.103-5.75 24.558-3.58 36 0-3.376-3.674-6.391-6.054-11-8h-2l.875-3.523c6.449-27.19 2.826-56.322-11.207-80.817-4.62-7.368-9.896-14.167-15.668-20.66 0 3.396.666 4.51 2.344 7.402l1.517 2.668 1.639 2.868c13.839 24.838 25.05 54.357 17.5 83.062-1.419 4.034-2.95 7.043-6.125 9.938-5.253 1.941-10.518 2.897-15.875 1-5.304-5.139-5.093-14.089-5.395-21.04a2814.15 2814.15 0 0 0-.2-4.144l-.105-2.167c-1.105-21.772-2.754-53.6-18.927-70.264-5.292-5.475-7.083-10.505-8.873-17.823-3.748-13.922-8.319-25.72-16.566-37.648-6.99-10.308-9.776-18.89-7.465-31.387.345-1.438.7-2.873 1.066-4.305.54-2.509.78-4.909.902-7.472l.122-2.426c-.862-3.49-2.547-4.36-5.559-6.262-2.986-1.315-6.039-2.382-9.125-3.438-6.474-2.287-12.756-4.713-18.941-7.714-1.887-.982-1.887-.982-3.934-.848-1.8-8.546-1.967-17.05 2-25 2.332-2.987 3.847-3.85 7.594-4.336 4.056-.142 7.49.024 11.344 1.336 4.707 4.564 6.83 10.5 7.062 17-.403 2.085-.93 4.096-1.516 6.137-.609 2.342-.703 4.457-.484 6.863 1.163 1.385 1.163 1.385 4.375 1.188 3.722.117 3.722.117 6.625-2.188 3.494-10.483 1.64-24.24-3-34-3.75-6.874-8.804-10.879-16.07-13.52-7.228-1.799-15.694 1.07-21.368 5.582ZM275 96l1.875.563c3.181 2.151 3.32 4.812 4.125 8.437h3c-1.408-5.215-1.408-5.215-5-9h-4Zm-65 1v3l2 1c.414 2.066.414 2.066.625 4.563l.227 2.503L213 110h2c.294-4.992.078-7.974-3-12l-2-1Zm107 56c-1.267 1.074-1.267 1.074-1.438 3.563.778 6.109 5.11 10.393 9.5 14.5 2.734 2.19 2.734 2.19 5.688 1.937 2.572-.903 2.572-.903 4.25-4 .088-2.556.088-2.556-1-5-2.306-1.733-2.306-1.733-5.188-3-4.523-2.274-8.094-4.583-11.812-8Zm-168 91c-3.123 6.948-3.123 6.948-6 14 3.368-1.373 4.692-2.598 6.25-5.875l1.016-2.055c.957-2.332.957-2.332.734-6.07h-2Z" fill="#FFF"/><path d="M252 118v4c-3.41-.787-6.689-1.871-10-3 1-2 1-2 2.75-2.75 2.894-.322 4.65.523 7.25 1.75ZM226 117l-6 7-3-1c.313-1.875.313-1.875 1-4 3.228-2.152 4.284-2.2 8-2Z" fill="#FFF"/></svg>