<svg xmlns="http://www.w3.org/2000/svg" width="463" height="463" style="shape-rendering:geometricPrecision;text-rendering:geometricPrecision;image-rendering:optimizeQuality;fill-rule:evenodd;clip-rule:evenodd"><path style="opacity:.968" fill="#fefffe" d="M317.5-.5h17c2.235 47.599-17.765 82.432-60 104.5-14.295 6.592-29.295 9.592-45 9-1.561-.318-2.728-1.151-3.5-2.5-2.512-15.565-.512-30.565 6-45 12.199-25.865 31.366-44.699 57.5-56.5a462.607 462.607 0 0 1 28-9.5Z"/><path style="opacity:.992" fill="#fefffe" d="M333.5 462.5h-24a542.671 542.671 0 0 1-43-14.5c-17.671-4.637-35.338-4.637-53 0a3193.911 3193.911 0 0 1-42 14.5h-28c-7.804-2.897-15.471-6.397-23-10.5-62.295-52.592-95.628-119.925-100-202-.228-36.317 10.938-68.484 33.5-96.5 34.764-36.475 76.93-49.641 126.5-39.5 14.011 4.669 28.011 9.335 42 14 7.333 2 14.667 2 22 0l45-15c40.894-9.286 78.894-2.619 114 20a179.25 179.25 0 0 1 22.5 22.5c.667 2 .667 4 0 6-23.092 12.758-39.425 31.425-49 56-11.366 55.104 8.801 93.604 60.5 115.5 1.51 1.351 2.51 3.018 3 5-15.341 40.662-38.674 75.996-70 106-11.057 8.862-23.39 15.028-37 18.5Z"/></svg>