<svg xmlns="http://www.w3.org/2000/svg" width="171" height="171" style="shape-rendering:geometricPrecision;text-rendering:geometricPrecision;image-rendering:optimizeQuality;fill-rule:evenodd;clip-rule:evenodd"><path style="opacity:1" fill="#fefffe" d="M1.5 9.5c16.337-.167 32.67 0 49 .5A5671.106 5671.106 0 0 1 119 113.5l1-103a300.626 300.626 0 0 1 49 0c.667 49.667.667 99.333 0 149a395.731 395.731 0 0 1-48.5.5L51 56.5c-.5 34.665-.667 69.332-.5 104a619.314 619.314 0 0 1-49.5-1c-.828-50.071-.661-100.07.5-150Z"/></svg>