<svg xmlns="http://www.w3.org/2000/svg" width="531" height="531" style="shape-rendering:geometricPrecision;text-rendering:geometricPrecision;image-rendering:optimizeQuality;fill-rule:evenodd;clip-rule:evenodd"><path style="opacity:.773" fill="#d6f1fd" d="M524.5 15.5c1.765-.961 3.765-1.295 6-1v247h-175a7571.829 7571.829 0 0 1 174-1v-245h-5Z"/><path style="opacity:1" fill="#fefefe" d="M524.5 15.5h5v245a7571.829 7571.829 0 0 0-174 1h-126v-206a78327.279 78327.279 0 0 1 295-40Z"/><path style="opacity:.999" fill="#fefefe" d="M210.5 261.5H1.5v-174a15065.736 15065.736 0 0 1 210-29c.333 67.835-.001 135.502-1 203Z"/><path style="opacity:.773" fill="#c8ebfc" d="M1.5 87.5v174h209c-69.831.999-139.831 1.333-210 1a7656.848 7656.848 0 0 1 1-175Z"/><path style="opacity:.999" fill="#fefefe" d="M1.5 274.5a20662.469 20662.469 0 0 0 210 2v196a13241.998 13241.998 0 0 1-210-29 3583.443 3583.443 0 0 1 0-169Z"/><path style="opacity:1" fill="#fefefe" d="M529.5 279.5v236h-5a78347.864 78347.864 0 0 1-295-40v-199c100.166.76 200.166 1.76 300 3Z"/><path style="opacity:.773" fill="#edf9fe" d="M529.5 279.5h1v237c-2.235.295-4.235-.039-6-1h5v-236Z"/></svg>