<svg xmlns="http://www.w3.org/2000/svg" width="529" height="529" style="shape-rendering:geometricPrecision;text-rendering:geometricPrecision;image-rendering:optimizeQuality;fill-rule:evenodd;clip-rule:evenodd"><path style="opacity:.98" fill="#fefffe" d="M196.5 13.5c8.77.787 17.436 2.287 26 4.5A1009.634 1009.634 0 0 1 338 62.5c40.535 20.362 64.535 53.029 72 98a299.629 299.629 0 0 1 2 73c-1.918 17.018-6.918 33.018-15 48-7.376 10.766-17.209 18.266-29.5 22.5-15.811 2.884-30.811.551-45-7a26.852 26.852 0 0 0-6-3.5c-.833-57.664-1.333-115.33-1.5-173-.573-7.051-2.739-13.551-6.5-19.5a42.681 42.681 0 0 0-11.5-5.5c-2.255.11-3.922 1.11-5 3a28932.9 28932.9 0 0 0-1.5 415 427.254 427.254 0 0 1-16-4.5 13467.308 13467.308 0 0 1-77.5-29.5c-.5-155.333-.667-310.666-.5-466Z"/><path style="opacity:.958" fill="#fefffe" d="M-.5 409.5v-21a89.9 89.9 0 0 0 5.5-9c12.377-10.537 25.71-19.87 40-28a16672.894 16672.894 0 0 1 133-56 12.992 12.992 0 0 1 5.5-1c.167 20.336 0 40.669-.5 61A1973.708 1973.708 0 0 1 90.5 395a146.39 146.39 0 0 1-9.5 6.5c-4.347 6.393-2.847 10.893 4.5 13.5 15.031 3.399 30.031 3.232 45-.5a1666.565 1666.565 0 0 0 52.5-21 542.165 542.165 0 0 1-.5 57 25.82 25.82 0 0 1-11 3.5c-53.258 8.846-103.925 1.346-152-22.5-8.448-5.778-15.114-13.111-20-22Z"/><path style="opacity:.962" fill="#fefffe" d="M528.5 373.5v13a235.73 235.73 0 0 1-4.5 10c-8.155 9.821-17.821 17.821-29 24a20145.354 20145.354 0 0 1-190 86 688.46 688.46 0 0 1 2.5-65 31492.06 31492.06 0 0 1 132-59.5c5.529-2.695 9.529-6.862 12-12.5-3.232-5.041-7.898-7.874-14-8.5-18.051-2.847-35.385-.513-52 7a1128.086 1128.086 0 0 1-81 36.5 1143.939 1143.939 0 0 0 1-66 1166.67 1166.67 0 0 0 25-9.5c59.495-15.849 116.829-10.349 172 16.5a99.678 99.678 0 0 1 20.5 17l5.5 11Z"/></svg>