<svg xmlns="http://www.w3.org/2000/svg" width="854" height="854" style="shape-rendering:geometricPrecision;text-rendering:geometricPrecision;image-rendering:optimizeQuality;fill-rule:evenodd;clip-rule:evenodd"><path fill="#fcfcfc" d="M398.5-.5h56c130.41 11.775 235.576 69.108 315.5 172 48.658 66.798 76.492 141.464 83.5 224v62c-12.817 131.167-71.483 236.334-176 315.5-65.948 46.798-139.281 73.632-220 80.5h-61c-125.375-11.428-227.541-65.762-306.5-163-53.473-69.564-83.64-148.23-90.5-236v-56C11.349 266.603 69.682 160.77 174.5 81c66.963-48.046 141.63-75.213 224-81.5Zm6 51c.999 68.165 1.333 136.498 1 205-45.765-1.683-90.431-9.516-134-23.5 30.809-70.468 75.142-130.968 133-181.5Zm43 0c58.623 50.133 103.29 110.633 134 181.5-43.553 14.077-88.22 21.91-134 23.5v-205Zm-106 1c-46.187 48.244-82.52 103.244-109 165-1.223 1.114-2.556 1.281-4 .5-31.312-12.82-60.979-28.486-89-47 54.558-60.796 121.891-100.296 202-118.5Zm170 0c80.104 18.202 147.438 57.702 202 118.5-28.931 18.885-59.431 35.052-91.5 48.5-26.874-62.459-63.707-118.126-110.5-167Zm-321 350c-.934 1.068-1.268 2.401-1 4h-147v-6c5.106-72.339 28.773-137.673 71-196a719.689 719.689 0 0 0 103 55.5c-15.422 46.276-24.089 93.776-26 142.5Zm620-4v8h-147c-2.209-50.257-11.209-99.257-27-147 36.272-14.966 70.605-33.299 103-55 41.816 57.76 65.483 122.426 71 194Zm-409-100c1.068.934 2.401 1.268 4 1v107h-173c1.794-45.634 10.128-89.967 25-133 46.839 15.029 94.839 23.362 144 25Zm219 102v6h-173v-107c50.482-2.191 99.815-10.858 148-26 10.61 29.109 17.777 59.109 21.5 90a462.265 462.265 0 0 1 3.5 37Zm-578 48h147c1.716 50.245 10.383 99.245 26 147a751.167 751.167 0 0 0-102 55c-43.483-60.104-67.15-127.437-71-202Zm190 0h173v108c-51.152 1.275-100.985 9.942-149.5 26-14.416-43.497-22.25-88.164-23.5-134Zm215 0h173c-1.073 45.865-8.907 90.532-23.5 134-48.516-16.058-98.349-24.725-149.5-26v-108Zm216 0c49.334-.167 98.668 0 148 .5-4.634 71.238-26.801 136.405-66.5 195.5a34.534 34.534 0 0 1-5.5 6c-32.379-21.025-66.379-39.192-102-54.5 15.624-47.906 24.29-97.073 26-147.5Zm-258 150c.333 69.835-.001 139.502-1 209-59.38-51.437-104.047-113.437-134-186 44.044-13.174 89.044-20.841 135-23Zm79 175a229.509 229.509 0 0 0-18 18 631.719 631.719 0 0 1-18.5 17c-.5-69.999-.667-139.999-.5-210 45.96 2.126 90.96 9.792 135 23-23.143 56.989-55.81 107.656-98 152Zm-148 28c-75.381-18.428-139.548-55.761-192.5-112-1.602-1.869-2.602-3.869-3-6 28.211-18.274 57.878-33.941 89-47 26.003 61.394 61.503 116.394 106.5 165Zm180 0c45.406-48.425 81.073-103.425 107-165 31.228 12.694 60.728 28.361 88.5 47 .315 1.408-.018 2.741-1 4-53.259 57.392-118.093 95.392-194.5 114Z" style="opacity:.997"/><path fill="#bfbfbf" d="M404.5 50.5c.06-.543.393-.876 1-1a5310.302 5310.302 0 0 1 0 206c.333-68.502-.001-136.835-1-205Z" style="opacity:.631"/><path fill="#bbb" d="M401.5 297.5h5c.332 36.171-.002 72.171-1 108v-107c-1.599.268-2.932-.066-4-1Z" style="opacity:.631"/><path fill="#b9b9b9" d="M42.5 399.5v6h147c-.268-1.599.066-2.932 1-4v5h-149c-.302-2.559.032-4.893 1-7Z" style="opacity:.631"/><path fill="#bdbdbd" d="M620.5 399.5c.968 2.107 1.302 4.441 1 7a7571.829 7571.829 0 0 1-174-1h173v-6Z" style="opacity:.631"/><path fill="#bababa" d="M810.5 397.5c.977 2.787 1.31 5.787 1 9-49.503.332-98.836-.001-148-1h147v-8Z" style="opacity:.4"/><path fill="#bfbfbf" d="M405.5 597.5a5518.51 5518.51 0 0 1 0 210c-.607-.124-.94-.457-1-1 .999-69.498 1.333-139.165 1-209Z" style="opacity:.631"/><path fill="#a9a9a9" d="M484.5 772.5c-5 7-11 13-18 18a229.509 229.509 0 0 1 18-18Z" style="opacity:.82"/></svg>