<svg xmlns="http://www.w3.org/2000/svg" width="512" height="512" style="shape-rendering:geometricPrecision;text-rendering:geometricPrecision;image-rendering:optimizeQuality;fill-rule:evenodd;clip-rule:evenodd"><path style="opacity:.975" fill="#fefffe" d="M116.5 43.5c30.284-21.272 63.951-34.439 101-39.5 59.813-8.144 115.813 2.856 168 33a110.9 110.9 0 0 1 14 11c-3.994-2.505-8.328-4.838-13-7-12.759-2.795-25.425-2.128-38 2a224.199 224.199 0 0 0-41 18A867.253 867.253 0 0 0 255 95.5c-26.485-20.837-55.318-38.004-86.5-51.5-17.361-7.013-34.695-7.18-52-.5Z"/><path style="opacity:.102" fill="#fefffe" d="M116.5 43.5c-.667.667-.667.667 0 0Z"/><path style="opacity:.991" fill="#fefffe" d="M406.5 66.5c10.302-.26 19.635 2.574 28 8.5 63.415 66.787 86.248 145.621 68.5 236.5-25.435 96.101-85.601 158.935-180.5 188.5-98.834 22.926-183.667-1.574-254.5-73.5-59.153-68.616-78.487-147.283-58-236 11.442-41.233 31.443-77.566 60-109 16.609-15.448 35.109-17.948 55.5-7.5 32.024 14.672 59.69 35.173 83 61.5-35.116 37.275-66.616 77.275-94.5 120-22.247 35.062-37.247 73.062-45 114-3.212 18.022-3.212 36.022 0 54a151.437 151.437 0 0 1 15-41c24.433-41.442 53.099-79.775 86-115a3468.022 3468.022 0 0 1 85.5-86c50.413 48.298 97.58 99.298 141.5 153 21.082 26.159 36.416 55.492 46 88 7.705-41.729 1.705-81.395-18-119-23.647-46.988-52.981-89.988-88-129L300.5 136c30.914-29.954 66.247-53.12 106-69.5Z"/></svg>